STARTFONT 2.1
FONT -FontForge-Silom-Bold-R-Normal--12-120-75-75-P-64-ISO10646-1
SIZE 12 75 75
FONTBOUNDINGBOX 34 11 -1 -2
COMMENT "Generated by fontforge, http://fontforge.sourceforge.net"
COMMENT "Copyright (c) Tom Tor, 2000. All rights reserved. www.tomtor.com"
STARTPROPERTIES 39
FOUNDRY "FontForge"
FAMILY_NAME "Silom"
WEIGHT_NAME "Bold"
SLANT "R"
SETWIDTH_NAME "Normal"
ADD_STYLE_NAME ""
PIXEL_SIZE 12
POINT_SIZE 120
RESOLUTION_X 75
RESOLUTION_Y 75
SPACING "P"
AVERAGE_WIDTH 64
CHARSET_REGISTRY "ISO10646"
CHARSET_ENCODING "1"
FONTNAME_REGISTRY ""
CHARSET_COLLECTIONS "ISO10646-1"
FONT_NAME "Silom-Bold"
FACE_NAME "Silom Bold"
COPYRIGHT "Copyright (c) Tom Tor, 2000. All rights reserved. www.tomtor.com"
FONT_VERSION "1.00"
FONT_ASCENT 10
FONT_DESCENT 2
UNDERLINE_POSITION -1
UNDERLINE_THICKNESS 1
X_HEIGHT 5
CAP_HEIGHT 7
RAW_ASCENT 800
RAW_DESCENT 200
NORM_SPACE 6
RELATIVE_WEIGHT 70
RELATIVE_SETWIDTH 50
SUPERSCRIPT_X 0
SUPERSCRIPT_Y 5
SUPERSCRIPT_SIZE 7
SUBSCRIPT_X 0
SUBSCRIPT_Y 1
SUBSCRIPT_SIZE 7
AVG_LOWERCASE_WIDTH 58
AVG_UPPERCASE_WIDTH 63
ENDPROPERTIES
CHARS 113
STARTCHAR caron
ENCODING 12
SWIDTH 2880 0
DWIDTH 35 0
BBX 33 8 0 0
BITMAP
6000300000
6000300000
EF7F73DF80
FFFFF7DF80
79ECB6D900
79ECB6D800
7FECB7D800
2F6C93D800
ENDCHAR
STARTCHAR space
ENCODING 32
SWIDTH 500 0
DWIDTH 6 0
BBX 1 1 0 0
BITMAP
00
ENDCHAR
STARTCHAR exclam
ENCODING 33
SWIDTH 275 0
DWIDTH 3 0
BBX 2 8 0 0
BITMAP
C0
C0
C0
C0
C0
C0
00
C0
ENDCHAR
STARTCHAR quotedbl
ENCODING 34
SWIDTH 591 0
DWIDTH 8 0
BBX 6 3 0 5
BITMAP
6C
D8
D8
ENDCHAR
STARTCHAR numbersign
ENCODING 35
SWIDTH 650 0
DWIDTH 8 0
BBX 7 8 0 0
BITMAP
6C
6C
FE
6C
6C
FE
6C
6C
ENDCHAR
STARTCHAR dollar
ENCODING 36
SWIDTH 575 0
DWIDTH 7 0
BBX 6 8 0 0
BITMAP
30
7C
C0
C0
78
0C
F8
30
ENDCHAR
STARTCHAR percent
ENCODING 37
SWIDTH 661 0
DWIDTH 8 0
BBX 7 8 0 0
BITMAP
4C
AC
58
18
30
34
6A
64
ENDCHAR
STARTCHAR ampersand
ENCODING 38
SWIDTH 714 0
DWIDTH 9 0
BBX 7 8 0 0
BITMAP
78
CC
EC
78
72
DA
CC
7A
ENDCHAR
STARTCHAR quotesingle
ENCODING 39
SWIDTH 350 0
DWIDTH 4 0
BBX 3 3 0 5
BITMAP
60
C0
C0
ENDCHAR
STARTCHAR parenleft
ENCODING 40
SWIDTH 425 0
DWIDTH 5 0
BBX 4 10 0 -1
BITMAP
30
60
C0
C0
C0
C0
C0
C0
60
30
ENDCHAR
STARTCHAR parenright
ENCODING 41
SWIDTH 425 0
DWIDTH 5 0
BBX 4 10 0 -1
BITMAP
C0
60
30
30
30
30
30
30
60
C0
ENDCHAR
STARTCHAR asterisk
ENCODING 42
SWIDTH 535 0
DWIDTH 7 0
BBX 5 6 0 2
BITMAP
B8
70
F8
70
70
B8
ENDCHAR
STARTCHAR plus
ENCODING 43
SWIDTH 350 0
DWIDTH 4 0
BBX 3 3 0 2
BITMAP
40
E0
40
ENDCHAR
STARTCHAR comma
ENCODING 44
SWIDTH 350 0
DWIDTH 4 0
BBX 3 3 0 -1
BITMAP
60
60
C0
ENDCHAR
STARTCHAR hyphen
ENCODING 45
SWIDTH 500 0
DWIDTH 6 0
BBX 4 2 0 2
BITMAP
F0
F0
ENDCHAR
STARTCHAR period
ENCODING 46
SWIDTH 275 0
DWIDTH 3 0
BBX 2 2 0 0
BITMAP
C0
C0
ENDCHAR
STARTCHAR slash
ENCODING 47
SWIDTH 536 0
DWIDTH 6 0
BBX 5 8 0 0
BITMAP
18
18
30
30
60
60
C0
C0
ENDCHAR
STARTCHAR zero
ENCODING 48
SWIDTH 515 0
DWIDTH 7 0
BBX 5 8 0 0
BITMAP
78
F8
D8
D8
D8
D8
F8
78
ENDCHAR
STARTCHAR one
ENCODING 49
SWIDTH 395 0
DWIDTH 5 0
BBX 4 8 -1 0
BITMAP
30
70
F0
30
30
30
30
30
ENDCHAR
STARTCHAR two
ENCODING 50
SWIDTH 530 0
DWIDTH 7 0
BBX 5 8 0 0
BITMAP
70
F8
18
18
70
60
F8
F8
ENDCHAR
STARTCHAR three
ENCODING 51
SWIDTH 530 0
DWIDTH 6 0
BBX 4 8 0 0
BITMAP
60
F0
30
20
30
F0
F0
60
ENDCHAR
STARTCHAR four
ENCODING 52
SWIDTH 530 0
DWIDTH 6 0
BBX 5 8 0 0
BITMAP
18
38
78
58
D8
F8
18
18
ENDCHAR
STARTCHAR five
ENCODING 53
SWIDTH 530 0
DWIDTH 6 0
BBX 4 8 0 0
BITMAP
F0
F0
F0
F0
30
F0
F0
60
ENDCHAR
STARTCHAR six
ENCODING 54
SWIDTH 515 0
DWIDTH 7 0
BBX 5 8 0 0
BITMAP
78
F8
F8
F8
98
98
F8
78
ENDCHAR
STARTCHAR seven
ENCODING 55
SWIDTH 515 0
DWIDTH 6 0
BBX 5 8 0 0
BITMAP
F8
F8
10
30
60
60
60
60
ENDCHAR
STARTCHAR eight
ENCODING 56
SWIDTH 515 0
DWIDTH 6 0
BBX 5 8 0 0
BITMAP
70
F8
98
70
F8
98
F8
70
ENDCHAR
STARTCHAR nine
ENCODING 57
SWIDTH 569 0
DWIDTH 7 0
BBX 4 8 1 0
BITMAP
60
F0
F0
F0
F0
F0
F0
60
ENDCHAR
STARTCHAR colon
ENCODING 58
SWIDTH 275 0
DWIDTH 3 0
BBX 2 5 0 0
BITMAP
C0
C0
00
C0
C0
ENDCHAR
STARTCHAR semicolon
ENCODING 59
SWIDTH 350 0
DWIDTH 4 0
BBX 3 6 0 -1
BITMAP
60
60
00
60
60
C0
ENDCHAR
STARTCHAR less
ENCODING 60
SWIDTH 435 0
DWIDTH 5 0
BBX 4 5 0 1
BITMAP
30
60
C0
60
30
ENDCHAR
STARTCHAR equal
ENCODING 61
SWIDTH 604 0
DWIDTH 7 0
BBX 6 5 0 2
BITMAP
FC
FC
00
FC
FC
ENDCHAR
STARTCHAR greater
ENCODING 62
SWIDTH 435 0
DWIDTH 5 0
BBX 4 5 0 1
BITMAP
C0
60
30
60
C0
ENDCHAR
STARTCHAR question
ENCODING 63
SWIDTH 500 0
DWIDTH 6 0
BBX 6 8 0 0
BITMAP
78
CC
0C
0C
18
30
00
30
ENDCHAR
STARTCHAR at
ENCODING 64
SWIDTH 725 0
DWIDTH 9 0
BBX 8 8 0 0
BITMAP
3C
66
DB
DB
EF
DA
60
3C
ENDCHAR
STARTCHAR A
ENCODING 65
SWIDTH 530 0
DWIDTH 7 0
BBX 5 8 0 0
BITMAP
70
F8
D8
D8
D8
F8
F8
D8
ENDCHAR
STARTCHAR B
ENCODING 66
SWIDTH 530 0
DWIDTH 7 0
BBX 5 8 0 0
BITMAP
F0
F8
D8
F0
F8
D8
F8
F0
ENDCHAR
STARTCHAR C
ENCODING 67
SWIDTH 530 0
DWIDTH 6 0
BBX 5 8 0 0
BITMAP
78
F8
C0
C0
C0
C0
F8
78
ENDCHAR
STARTCHAR D
ENCODING 68
SWIDTH 530 0
DWIDTH 6 0
BBX 4 8 0 0
BITMAP
E0
F0
F0
F0
F0
F0
F0
E0
ENDCHAR
STARTCHAR E
ENCODING 69
SWIDTH 530 0
DWIDTH 6 0
BBX 5 8 0 0
BITMAP
F8
F8
C0
F0
F0
C0
F8
F8
ENDCHAR
STARTCHAR F
ENCODING 70
SWIDTH 530 0
DWIDTH 6 0
BBX 5 8 0 0
BITMAP
F8
F8
C0
F8
F8
C0
C0
C0
ENDCHAR
STARTCHAR G
ENCODING 71
SWIDTH 515 0
DWIDTH 6 0
BBX 5 8 0 0
BITMAP
60
F0
88
B0
B0
B0
F0
70
ENDCHAR
STARTCHAR H
ENCODING 72
SWIDTH 515 0
DWIDTH 6 0
BBX 4 8 0 0
BITMAP
B0
B0
B0
F0
F0
B0
B0
B0
ENDCHAR
STARTCHAR I
ENCODING 73
SWIDTH 245 0
DWIDTH 3 0
BBX 1 8 0 0
BITMAP
80
80
80
80
80
80
80
80
ENDCHAR
STARTCHAR J
ENCODING 74
SWIDTH 455 0
DWIDTH 5 0
BBX 4 8 0 0
BITMAP
30
30
30
30
30
30
F0
E0
ENDCHAR
STARTCHAR K
ENCODING 75
SWIDTH 515 0
DWIDTH 6 0
BBX 4 8 0 0
BITMAP
B0
A0
C0
C0
C0
C0
A0
B0
ENDCHAR
STARTCHAR L
ENCODING 76
SWIDTH 455 0
DWIDTH 5 0
BBX 4 8 0 0
BITMAP
80
80
80
80
80
80
F0
F0
ENDCHAR
STARTCHAR M
ENCODING 77
SWIDTH 665 0
DWIDTH 9 0
BBX 7 8 0 0
BITMAP
C6
CE
FE
F6
C6
C6
C6
C6
ENDCHAR
STARTCHAR N
ENCODING 78
SWIDTH 530 0
DWIDTH 7 0
BBX 5 8 0 0
BITMAP
D8
D8
D8
F8
F8
F8
D8
D8
ENDCHAR
STARTCHAR O
ENCODING 79
SWIDTH 530 0
DWIDTH 7 0
BBX 5 8 0 0
BITMAP
70
F8
D8
D8
D8
D8
F8
70
ENDCHAR
STARTCHAR P
ENCODING 80
SWIDTH 530 0
DWIDTH 7 0
BBX 5 8 0 0
BITMAP
F0
F8
D8
D8
F8
F0
C0
C0
ENDCHAR
STARTCHAR Q
ENCODING 81
SWIDTH 530 0
DWIDTH 7 0
BBX 5 9 0 -1
BITMAP
70
F8
D8
D8
D8
D8
F8
70
38
ENDCHAR
STARTCHAR R
ENCODING 82
SWIDTH 530 0
DWIDTH 7 0
BBX 5 8 0 0
BITMAP
F0
F8
D8
D8
F0
F8
D8
D8
ENDCHAR
STARTCHAR S
ENCODING 83
SWIDTH 530 0
DWIDTH 6 0
BBX 4 8 0 0
BITMAP
60
F0
C0
E0
70
30
F0
60
ENDCHAR
STARTCHAR T
ENCODING 84
SWIDTH 530 0
DWIDTH 6 0
BBX 6 8 -1 0
BITMAP
FC
FC
30
30
30
30
30
30
ENDCHAR
STARTCHAR U
ENCODING 85
SWIDTH 530 0
DWIDTH 6 0
BBX 4 8 0 0
BITMAP
F0
F0
F0
F0
F0
F0
F0
60
ENDCHAR
STARTCHAR V
ENCODING 86
SWIDTH 530 0
DWIDTH 6 0
BBX 6 8 0 0
BITMAP
CC
CC
CC
CC
CC
78
30
30
ENDCHAR
STARTCHAR W
ENCODING 87
SWIDTH 725 0
DWIDTH 9 0
BBX 8 8 0 0
BITMAP
C3
C3
FF
76
7E
7E
34
34
ENDCHAR
STARTCHAR X
ENCODING 88
SWIDTH 515 0
DWIDTH 6 0
BBX 5 8 0 0
BITMAP
C8
C8
78
30
30
78
C8
C8
ENDCHAR
STARTCHAR Y
ENCODING 89
SWIDTH 500 0
DWIDTH 6 0
BBX 5 8 1 0
BITMAP
C8
C8
C8
78
78
30
30
30
ENDCHAR
STARTCHAR Z
ENCODING 90
SWIDTH 582 0
DWIDTH 7 0
BBX 6 8 0 0
BITMAP
7C
7C
18
30
30
60
FC
FC
ENDCHAR
STARTCHAR bracketleft
ENCODING 91
SWIDTH 370 0
DWIDTH 4 0
BBX 3 10 0 -1
BITMAP
E0
C0
C0
C0
C0
C0
C0
C0
C0
E0
ENDCHAR
STARTCHAR backslash
ENCODING 92
SWIDTH 401 0
DWIDTH 5 0
BBX 2 8 1 0
BITMAP
C0
C0
C0
C0
C0
C0
C0
C0
ENDCHAR
STARTCHAR bracketright
ENCODING 93
SWIDTH 370 0
DWIDTH 4 0
BBX 3 10 0 -1
BITMAP
E0
60
60
60
60
60
60
60
60
E0
ENDCHAR
STARTCHAR asciicircum
ENCODING 94
SWIDTH 500 0
DWIDTH 6 0
BBX 5 3 0 5
BITMAP
20
70
D8
ENDCHAR
STARTCHAR underscore
ENCODING 95
SWIDTH 575 0
DWIDTH 7 0
BBX 5 1 0 -1
BITMAP
F8
ENDCHAR
STARTCHAR grave
ENCODING 96
SWIDTH 350 0
DWIDTH 4 0
BBX 3 3 0 5
BITMAP
C0
60
60
ENDCHAR
STARTCHAR a
ENCODING 97
SWIDTH 530 0
DWIDTH 6 0
BBX 5 6 0 0
BITMAP
78
F8
D8
D8
F8
78
ENDCHAR
STARTCHAR b
ENCODING 98
SWIDTH 530 0
DWIDTH 6 0
BBX 4 8 0 0
BITMAP
C0
C0
F0
F0
F0
F0
F0
F0
ENDCHAR
STARTCHAR c
ENCODING 99
SWIDTH 470 0
DWIDTH 6 0
BBX 4 6 0 0
BITMAP
60
F0
C0
C0
F0
60
ENDCHAR
STARTCHAR d
ENCODING 100
SWIDTH 530 0
DWIDTH 6 0
BBX 4 8 0 0
BITMAP
30
30
F0
F0
F0
F0
F0
F0
ENDCHAR
STARTCHAR e
ENCODING 101
SWIDTH 530 0
DWIDTH 6 0
BBX 5 6 0 0
BITMAP
70
70
C8
F8
F8
70
ENDCHAR
STARTCHAR f
ENCODING 102
SWIDTH 455 0
DWIDTH 5 0
BBX 4 8 0 0
BITMAP
70
70
E0
E0
40
40
40
40
ENDCHAR
STARTCHAR g
ENCODING 103
SWIDTH 530 0
DWIDTH 6 0
BBX 4 8 0 -2
BITMAP
70
70
F0
F0
F0
30
70
20
ENDCHAR
STARTCHAR h
ENCODING 104
SWIDTH 530 0
DWIDTH 6 0
BBX 4 8 0 0
BITMAP
C0
C0
E0
F0
F0
F0
F0
F0
ENDCHAR
STARTCHAR i
ENCODING 105
SWIDTH 260 0
DWIDTH 3 0
BBX 2 8 0 0
BITMAP
C0
C0
C0
C0
C0
C0
C0
C0
ENDCHAR
STARTCHAR j
ENCODING 106
SWIDTH 380 0
DWIDTH 5 0
BBX 3 10 0 -2
BITMAP
20
20
20
20
20
20
20
20
E0
E0
ENDCHAR
STARTCHAR k
ENCODING 107
SWIDTH 515 0
DWIDTH 6 0
BBX 5 8 0 0
BITMAP
C0
C0
D0
F8
F0
E0
F0
D0
ENDCHAR
STARTCHAR l
ENCODING 108
SWIDTH 260 0
DWIDTH 3 0
BBX 2 8 0 0
BITMAP
C0
C0
C0
C0
C0
C0
C0
C0
ENDCHAR
STARTCHAR m
ENCODING 109
SWIDTH 785 0
DWIDTH 10 0
BBX 8 6 0 0
BITMAP
FE
FF
D9
D9
D9
D9
ENDCHAR
STARTCHAR n
ENCODING 110
SWIDTH 530 0
DWIDTH 6 0
BBX 4 6 0 0
BITMAP
E0
F0
F0
F0
F0
F0
ENDCHAR
STARTCHAR o
ENCODING 111
SWIDTH 530 0
DWIDTH 7 0
BBX 5 6 0 0
BITMAP
78
F8
D8
D8
F8
78
ENDCHAR
STARTCHAR p
ENCODING 112
SWIDTH 530 0
DWIDTH 7 0
BBX 5 8 0 -2
BITMAP
F0
F8
D8
D8
F8
F0
C0
C0
ENDCHAR
STARTCHAR q
ENCODING 113
SWIDTH 530 0
DWIDTH 6 0
BBX 4 8 0 -2
BITMAP
F0
F0
F0
F0
F0
F0
30
30
ENDCHAR
STARTCHAR r
ENCODING 114
SWIDTH 455 0
DWIDTH 5 0
BBX 3 6 0 0
BITMAP
E0
E0
80
C0
C0
C0
ENDCHAR
STARTCHAR s
ENCODING 115
SWIDTH 455 0
DWIDTH 5 0
BBX 4 6 0 0
BITMAP
70
F0
60
B0
F0
E0
ENDCHAR
STARTCHAR t
ENCODING 116
SWIDTH 395 0
DWIDTH 5 0
BBX 3 8 0 0
BITMAP
60
60
E0
E0
60
60
60
20
ENDCHAR
STARTCHAR u
ENCODING 117
SWIDTH 530 0
DWIDTH 6 0
BBX 4 6 0 0
BITMAP
F0
F0
F0
F0
F0
70
ENDCHAR
STARTCHAR v
ENCODING 118
SWIDTH 530 0
DWIDTH 6 0
BBX 6 5 0 0
BITMAP
CC
CC
78
78
30
ENDCHAR
STARTCHAR w
ENCODING 119
SWIDTH 650 0
DWIDTH 8 0
BBX 6 6 0 0
BITMAP
C4
C4
F4
F4
78
48
ENDCHAR
STARTCHAR x
ENCODING 120
SWIDTH 530 0
DWIDTH 6 0
BBX 6 6 0 0
BITMAP
CC
CC
30
30
CC
CC
ENDCHAR
STARTCHAR y
ENCODING 121
SWIDTH 515 0
DWIDTH 6 0
BBX 4 8 0 -2
BITMAP
F0
F0
F0
F0
F0
30
70
30
ENDCHAR
STARTCHAR z
ENCODING 122
SWIDTH 500 0
DWIDTH 6 0
BBX 6 6 0 0
BITMAP
FC
FC
18
60
FC
FC
ENDCHAR
STARTCHAR braceleft
ENCODING 123
SWIDTH 425 0
DWIDTH 5 0
BBX 4 10 0 -1
BITMAP
30
60
60
60
60
C0
60
60
60
30
ENDCHAR
STARTCHAR bar
ENCODING 124
SWIDTH 290 0
DWIDTH 3 0
BBX 2 8 0 0
BITMAP
C0
C0
C0
C0
C0
C0
C0
C0
ENDCHAR
STARTCHAR braceright
ENCODING 125
SWIDTH 425 0
DWIDTH 5 0
BBX 4 10 0 -1
BITMAP
C0
60
60
60
60
30
60
60
60
C0
ENDCHAR
STARTCHAR space.dup1
ENCODING 160
SWIDTH 500 0
DWIDTH 6 0
BBX 1 1 0 0
BITMAP
00
ENDCHAR
STARTCHAR cent
ENCODING 162
SWIDTH 520 0
DWIDTH 6 0
BBX 5 8 0 0
BITMAP
20
70
D8
C0
C0
D8
70
20
ENDCHAR
STARTCHAR sterling
ENCODING 163
SWIDTH 575 0
DWIDTH 8 0
BBX 6 8 0 0
BITMAP
70
D8
C0
C0
F0
C0
CC
F8
ENDCHAR
STARTCHAR section
ENCODING 167
SWIDTH 500 0
DWIDTH 6 0
BBX 4 8 0 0
BITMAP
70
C0
E0
60
F0
60
30
E0
ENDCHAR
STARTCHAR copyright
ENCODING 169
SWIDTH 762 0
DWIDTH 10 0
BBX 8 8 0 0
BITMAP
7E
81
BD
A1
A1
BD
81
7E
ENDCHAR
STARTCHAR registered
ENCODING 174
SWIDTH 820 0
DWIDTH 10 0
BBX 7 8 1 0
BITMAP
7C
82
BA
B2
B2
AA
82
7C
ENDCHAR
STARTCHAR germandbls
ENCODING 223
SWIDTH 575 0
DWIDTH 7 0
BBX 5 9 0 -1
BITMAP
38
78
D8
D8
D8
D8
D8
D8
C0
ENDCHAR
STARTCHAR florin
ENCODING 402
SWIDTH 425 0
DWIDTH 5 0
BBX 4 10 0 -2
BITMAP
30
60
60
F0
60
60
60
60
60
C0
ENDCHAR
STARTCHAR endash
ENCODING 8211
SWIDTH 604 0
DWIDTH 7 0
BBX 6 2 0 2
BITMAP
FC
FC
ENDCHAR
STARTCHAR emdash
ENCODING 8212
SWIDTH 1126 0
DWIDTH 14 0
BBX 12 2 0 2
BITMAP
FFF0
FFF0
ENDCHAR
STARTCHAR quotesinglbase
ENCODING 8218
SWIDTH 350 0
DWIDTH 4 0
BBX 3 3 0 -1
BITMAP
60
60
C0
ENDCHAR
STARTCHAR quotedblbase
ENCODING 8222
SWIDTH 591 0
DWIDTH 8 0
BBX 6 3 0 -1
BITMAP
6C
6C
D8
ENDCHAR
STARTCHAR ellipsis
ENCODING 8230
SWIDTH 785 0
DWIDTH 10 0
BBX 8 2 0 0
BITMAP
DB
DB
ENDCHAR
STARTCHAR trademark
ENCODING 8482
SWIDTH 855 0
DWIDTH 10 0
BBX 8 3 0 5
BITMAP
EA
55
55
ENDCHAR
STARTCHAR .notdef
ENCODING -1
SWIDTH 500 0
DWIDTH 6 0
BBX 1 1 0 0
BITMAP
00
ENDCHAR
STARTCHAR .null
ENCODING -1
SWIDTH 0 0
DWIDTH 0 0
BBX 1 1 0 0
BITMAP
00
ENDCHAR
STARTCHAR nonmarkingreturn
ENCODING -1
SWIDTH 500 0
DWIDTH 6 0
BBX 1 1 0 0
BITMAP
00
ENDCHAR
STARTCHAR infinity
ENCODING -1
SWIDTH 815 0
DWIDTH 10 0
BBX 8 3 0 2
BITMAP
6E
DB
6E
ENDCHAR
ENDFONT
